<svg width="255" height="375" viewBox="0 0 255 375" fill="none" xmlns="http://www.w3.org/2000/svg">
<g id="walf 2" clip-path="url(#clip0_105_422)">
<path id="Vector" d="M89.56 9.4934C88.4267 9.48007 87.28 9.48007 86.1334 9.4934C81.4534 17.5067 79.36 25.8534 76.6 34.6267L73.1334 33.6134C74.3067 33.9867 75.48 34.3734 76.6534 34.7601C76.4267 35.5067 76.2 36.2667 75.9734 37.0134C72.04 51.2267 68.0534 66.5334 68.2 81.3334C68.2 89.3201 68.1067 96.7067 71.7867 104.027C75.2267 111.2 81.3867 115.893 88.5067 119.093C102.813 123.067 117.2 126.147 131.893 128.293C138.6 128.787 145.24 129.147 151.893 130.2C163.093 131.413 174.013 133.267 185.333 133.053C191.587 133.133 197.613 131.987 203.76 131.107L206.293 130.747C209.48 127.453 213.227 124.893 216.347 121.573C219.187 118.613 221.44 114.92 223.333 111.293C217.747 108.013 212.907 103.907 207.853 99.9067C205.267 103.08 202.773 106.587 199.68 109.28C195.493 108.04 192.467 103.027 189.52 100C186.027 104 182.493 107.973 178.813 111.813C174.107 108.347 169.653 104.68 165.32 100.773C162.787 104.12 160.24 107.427 157.587 110.667C153.747 107 149.907 103.36 145.947 99.8267C143.213 103.533 140.427 107.187 137.52 110.76C133.413 107.32 129.4 103.76 125.427 100.16C123.387 103.293 121.333 106.44 119.267 109.56C116.133 107.013 113.08 104.36 110.067 101.64C105.347 105.493 101.96 107.6 95.6534 107.64C95.5067 106.787 95.36 105.947 95.2 105.093C98.1067 104.373 101.253 103.92 103.947 102.64C106.653 100.987 106.627 97.2934 105.96 94.5734C103.56 91.7867 100.48 89.5734 97.8267 87.0401C101.56 88.0801 104.933 88.0134 107.347 91.4667C110.707 96.4134 113.667 101.24 118.387 105.093C120.213 102.867 122.387 97.0001 125.36 96.7067C129.893 98.3067 133.467 103.253 137.027 106.44C139.72 102.733 142.467 99.1067 145.307 95.5201C149.467 98.8801 153.4 102.427 157.2 106.187C159.653 102.747 162.187 99.3734 164.907 96.1467C169.293 99.8934 173.533 105.28 178.947 107.467C182.613 103.72 184.867 99.2801 189.267 96.2001C192.987 98.8934 195.853 102.24 198.853 105.68C201.573 102.453 204.253 99.2001 206.92 95.9334C211.707 99.0267 216.68 102.267 220.76 106.28C222.067 107.547 222.547 109.667 223.333 111.293C226.267 100.413 227.547 89.3734 222.773 78.8001C221.053 82.1867 219.213 88.1867 215.28 89.6001C208.627 90.8667 201.427 90.0667 194.667 90.0934C189.24 89.8934 182.973 89.5467 180.227 84.0267C176.867 76.6934 177.413 67.3067 177 59.3867C178.787 59.4667 180.587 59.5601 182.387 59.6801C170.227 58.7467 158.107 57.5067 145.96 56.4001C142.267 46.9601 138.733 37.6134 134.28 28.4934C133.773 27.3734 133.133 26.1067 132.667 25.0134C131.173 21.6934 129.8 18.3201 128.467 14.9334C127.573 14.9734 126.667 15.0134 125.76 15.0534C119.08 23.3467 114.2 32.6801 109.893 42.3601C109.213 42.2001 108.52 42.0401 107.84 41.8801C102.227 30.8801 96.6 19.6667 89.56 9.4934Z" fill="#3B5AB0"/>
<path id="Vector_2" d="M87.2133 25.7732C83.9467 33.4399 81.4667 42.0132 81.92 50.4265C86.04 44.0932 85.9067 37.1465 88.52 30.3332C94.9467 35.3065 96.28 43.8532 102.907 48.9465C101.013 41.5865 96.5333 35.3332 92.24 29.1332C90.68 27.4399 89.8933 25.2265 87.2133 25.7732Z" fill="#09112B"/>
<path id="Vector_3" d="M125.52 29.0664C121.48 36.2931 118.387 43.7331 115.893 51.6264C116.947 51.5331 118 51.4397 119.053 51.3464C120.893 45.5997 123.173 40.2797 126.307 35.0931C129.907 41.7331 132.28 48.3864 137.36 54.1464C136.027 45.0797 130.867 36.3597 125.52 29.0664Z" fill="#0C1230"/>
<path id="Vector_4" d="M182.387 59.68C180.587 59.56 178.787 59.4667 177 59.3867C177.413 67.3067 176.867 76.6934 180.227 84.0267C182.973 89.5467 189.24 89.8934 194.667 90.0934C201.427 90.0667 208.627 90.8667 215.28 89.6C219.213 88.1867 221.053 82.1867 222.773 78.8C221.96 76.9334 220.707 75.2934 219.787 73.4801C218.453 72.0134 217.2 70.4534 215.773 69.0667C206.907 61.7467 193.347 61.44 182.387 59.68Z" fill="#212337"/>
<path id="Vector_5" d="M97.8267 87.04C100.48 89.5734 103.56 91.7867 105.96 94.5734C106.627 97.2934 106.653 100.987 103.947 102.64C101.253 103.92 98.1067 104.373 95.2 105.093C95.36 105.947 95.5067 106.787 95.6533 107.64C101.96 107.6 105.347 105.493 110.067 101.64C113.08 104.36 116.133 107.013 119.267 109.56C121.333 106.44 123.387 103.293 125.427 100.16C129.4 103.76 133.413 107.32 137.52 110.76C140.427 107.187 143.213 103.533 145.947 99.8267C149.907 103.36 153.747 107 157.587 110.667C160.24 107.427 162.787 104.12 165.32 100.773C169.653 104.68 174.107 108.347 178.813 111.813C182.493 107.973 186.027 104 189.52 100C192.467 103.027 195.493 108.04 199.68 109.28C202.773 106.587 205.267 103.08 207.853 99.9067C212.907 103.907 217.747 108.013 223.333 111.293C222.547 109.667 222.067 107.547 220.76 106.28C216.68 102.267 211.707 99.0267 206.92 95.9334C204.253 99.2 201.573 102.453 198.853 105.68C195.853 102.24 192.987 98.8934 189.267 96.2C184.867 99.28 182.613 103.72 178.947 107.467C173.533 105.28 169.293 99.8934 164.907 96.1467C162.187 99.3734 159.653 102.747 157.2 106.187C153.4 102.427 149.467 98.88 145.307 95.52C142.467 99.1067 139.72 102.733 137.027 106.44C133.467 103.253 129.893 98.3067 125.36 96.7067C122.387 97 120.213 102.867 118.387 105.093C113.667 101.24 110.707 96.4134 107.347 91.4667C104.933 88.0134 101.56 88.08 97.8267 87.04Z" fill="#0E1738"/>
<path id="Vector_6" d="M88.5067 119.094C82.5467 126.747 78.4534 136.24 74.44 145.094C70.7467 153.307 69.16 162.014 68.2 170.92C76.4 171.08 84.5867 172.174 92.68 173.507C94.2934 166.974 95.04 160.814 99.04 155.147C99.7867 162.174 97.7334 168.214 96.3734 175.054L93.4267 173.814C94.2134 174.174 94.9867 174.534 95.7734 174.88C95.5067 183.707 95.4934 192.52 95.3334 201.334C95.2134 207.907 94.0267 214.36 94 220.947C112.32 223.027 130.813 223.014 149.2 224.854C150.36 224.92 151.507 224.987 152.667 225.04C154.707 210.814 153.747 196.16 154.067 181.8C153.907 175.107 153.493 168.494 154.253 161.814C158.2 167.147 156.947 175.32 157.76 181.76C160.787 181.734 163.813 181.76 166.84 181.92C162.8 164.4 158.04 147.107 151.893 130.2C145.24 129.147 138.6 128.787 131.893 128.294C117.2 126.147 102.813 123.067 88.5067 119.094Z" fill="#E87E30"/>
<path id="Vector_7" d="M92.68 173.507C84.5867 172.173 76.4 171.08 68.2 170.92C65.8934 187.28 65.1067 203.48 63.96 220C63.6 224.933 63.5734 229.867 64.0534 234.8C64.5867 239.267 65.16 243.853 66.2267 248.213C68.9067 246.493 71.4267 244.533 73.84 242.44C75.0934 245.053 76.3734 247.653 77.6534 250.267C78.6 249.853 79.5467 249.44 80.48 249.027C81.6667 246.067 83.1467 243.32 84.7067 240.547C86.8134 243.547 88.2534 248.333 92.24 249.093C94.9067 240.36 93.76 230.04 94 220.947C94.0267 214.36 95.2134 207.907 95.3334 201.333C95.4934 192.52 95.5067 183.707 95.7734 174.88C94.9867 174.533 94.2134 174.173 93.4267 173.813L92.68 173.507Z" fill="#3B5AAF"/>
<path id="Vector_8" d="M166.84 181.92C163.813 181.76 160.787 181.733 157.76 181.76L154.067 181.8C153.747 196.16 154.707 210.813 152.667 225.04C151.507 224.987 150.36 224.92 149.2 224.853L152.707 225.213C153.067 234.587 152.413 243.987 152.653 253.36C152.6 256.467 153.76 258.947 155.267 261.56C156.987 258.4 158.76 255.24 160.533 252.107C162.893 255.107 165.413 257.933 168.187 260.573C168.573 257.453 168.867 254.333 169.107 251.2C169.773 251.187 170.44 251.173 171.093 251.16C174.227 254.427 177.453 257.587 180.893 260.547C181.827 248.88 179.293 238.013 177.173 226.667C174.2 211.467 172.16 196.573 166.84 181.92Z" fill="#3C5AAD"/>
<path id="Vector_9" d="M82.9067 183.587C82.6534 186.72 82.52 189.867 82.4 193.014C83.6934 193 84.9867 192.987 86.28 192.974C85.5467 189.32 87.6134 184.654 82.9067 183.587Z" fill="#111C50"/>
<path id="Vector_10" d="M74.7467 196.267C72.6667 201.387 70.9067 206 76.0933 209.92C76.6533 205.147 76.6667 200.773 74.7467 196.267Z" fill="#101847"/>
<path id="Vector_11" d="M162.227 206.134C162.067 209.28 161.973 212.427 161.92 215.56C163.067 215.6 164.2 215.627 165.347 215.667C164.76 211.734 166.133 208.507 162.227 206.134Z" fill="#11194B"/>
<path id="Vector_12" d="M84.5733 217.253C83.32 216.787 82.04 216.347 80.7467 215.96C80.88 220.373 81.2267 224.72 82.5467 228.947C84.8 225.12 85.7067 221.667 84.5733 217.253Z" fill="#172352"/>
<path id="Vector_13" d="M94 220.946C93.76 230.04 94.9067 240.36 92.24 249.093C88.2534 248.333 86.8134 243.546 84.7067 240.546C83.1467 243.32 81.6667 246.066 80.48 249.026C80.4667 250.92 80.48 252.8 80.5334 254.68C80.72 260.026 81 265.36 81.4534 270.68C82.6134 284.92 81.68 299.173 82.9067 313.413C87.8134 313.92 92.68 314.773 97.5867 315.266C104.587 315.426 111.693 315.746 118.667 315.146C120.773 314.946 121.84 313.773 123.267 312.413C121.293 303.653 121.08 294.253 120.093 285.306C118.84 273.746 119.067 262.266 119.04 250.666C119.067 243.866 118.32 237.72 119.96 231.08C122.293 236.733 121.52 242.053 121.693 248C121.867 259.853 121.333 271.16 122.64 282.96C123.72 292.893 124.24 302.906 125.773 312.786C130.667 313.64 135.387 314.76 140.147 316.173L141.48 316.16C146.28 315.96 150.907 314.946 155.587 313.946C155.027 296.493 155.853 279.013 155.267 261.56C153.76 258.946 152.6 256.466 152.653 253.36C152.413 243.986 153.067 234.586 152.707 225.213L149.2 224.853C130.813 223.013 112.32 223.026 94 220.946Z" fill="#212336"/>
<path id="Vector_14" d="M166.187 226.04C166.107 230.267 166.52 234.253 167.947 238.24C168.52 235.453 170.333 232.08 168.987 229.333C167.973 228.28 167.347 226.987 166.187 226.04Z" fill="#0C1844"/>
<path id="Vector_15" d="M119.96 231.08C118.32 237.72 119.067 243.867 119.04 250.667C119.067 262.267 118.84 273.747 120.093 285.307C121.08 294.253 121.293 303.653 123.267 312.413C121.84 313.773 120.773 314.947 118.667 315.147C111.693 315.747 104.587 315.427 97.5867 315.267C105.933 315.267 115.4 316.627 123.44 314.187C127.747 315.92 131.987 317.133 136.68 317.173L140.147 316.173C135.387 314.76 130.667 313.64 125.773 312.787C124.24 302.907 123.72 292.893 122.64 282.96C121.333 271.16 121.867 259.853 121.693 248C121.52 242.053 122.293 236.733 119.96 231.08Z" fill="#D9D9DE"/>
<path id="Vector_16" d="M61.6134 236.48C59.24 238.014 56.8 239.454 54.3867 240.894C53.32 241.52 52.2534 242.16 51.1867 242.774C47.72 244.88 44.3067 247.067 40.92 249.294C44.92 254.654 50.72 255.854 56.64 259.694C49.8667 264.307 42.5867 267.92 35.4 271.787C39.0134 277.107 45.4934 277.894 51.0667 280.707C46.6934 286.414 41.7333 291.56 36.64 296.614C36.5867 297.507 36.5467 298.414 36.5067 299.307C40.36 300.36 44.2134 301.374 48.0667 302.4C42.64 310.8 34.52 317.227 30.0934 326.12C35.5867 326.574 41.08 326.48 46.5867 326.307C45.9467 334.707 44.1334 342.84 44.3334 351.32C45.3467 351.36 46.36 351.4 47.36 351.427C52.5467 346.734 57.2267 341.587 61.8 336.307C63.44 341.134 65.0134 345.974 66.6267 350.814C68.5467 349.747 70.4934 349.667 71.4 347.707C75.4534 340.334 78.5334 332.267 81.0267 324.254C81.9867 320.694 82.7067 317.094 82.9067 313.414C81.68 299.174 82.6133 284.92 81.4533 270.68C81 265.36 80.72 260.027 80.5333 254.68C76.6 253.387 74.7067 251.787 72.08 248.694C70.0934 250.334 68.0934 251.987 66.1067 253.614C61.92 248.08 61.2667 243.32 61.6134 236.48Z" fill="#3B5BAE"/>
<path id="Vector_17" d="M66.9467 278.054C62.52 279.974 61.2667 282.974 59.6134 287.174C60.8267 287.134 62.0534 287.094 63.2667 287.067C64.6 284.107 65.92 281.147 66.9467 278.054Z" fill="#0E1C4A"/>
<path id="Vector_18" d="M74.0934 288.667C71.64 292.36 70.1333 296.227 69.1467 300.534C70.9467 299.294 73.2267 298.187 74.6267 296.467C76.04 293.707 75.1467 291.307 74.0934 288.667Z" fill="#192358"/>
<path id="Vector_19" d="M60.28 310.733C54.9734 310.386 51.8 314 52.3734 319.213C55.72 316.853 58.7867 314.72 60.28 310.733Z" fill="#1C2B63"/>
<path id="Vector_20" d="M155.587 313.946C150.907 314.946 146.28 315.96 141.48 316.16C143.453 318.84 145.8 322.2 146.093 325.586C146.107 328.626 144.733 331.773 143.827 334.64C150.4 336.706 157.52 339 164.387 339.693C165.387 339.733 166.133 339.6 166.933 338.973C170.013 337.746 173.413 335.506 174.84 332.4C175.973 328.933 174.467 325.173 172.133 322.573C167.867 317.973 161.707 315.04 155.587 313.946Z" fill="#51AFAC"/>
<path id="Vector_21" d="M123.44 314.186C115.4 316.626 105.933 315.266 97.5867 315.266C92.68 314.773 87.8134 313.92 82.9067 313.413C82.7067 317.093 81.9867 320.693 81.0267 324.253C83.52 327.306 85.64 330.52 89.4534 332.04C93.1067 333.48 97.1334 334.133 100.987 334.853C102.693 335.093 104.4 335.333 106.107 335.533C117.693 335.213 128.893 336.533 140.32 333.733C141.32 331.093 143 328.146 142.947 325.293C142.627 321.426 139.44 319.373 136.68 317.173C131.987 317.133 127.747 315.92 123.44 314.186Z" fill="#51AFAD"/>
<path id="Vector_22" d="M141.48 316.16L140.147 316.174L136.68 317.174C139.44 319.374 142.627 321.427 142.947 325.293C143 328.147 141.32 331.094 140.32 333.734C141.493 334.014 142.667 334.307 143.827 334.64C144.733 331.773 146.107 328.627 146.093 325.587C145.8 322.2 143.453 318.84 141.48 316.16Z" fill="#A4DCDB"/>
<path id="Vector_23" d="M71.2267 320.6C69.5467 323.093 69.1067 326.6 68.4133 329.467C72.5733 326.64 76.0533 323.533 75.4 318.053C73.12 317.133 72.5067 319.16 71.2267 320.6Z" fill="#1F2E64"/>
<path id="Vector_24" d="M167.293 344.227C163.8 349.707 163.173 356.64 167.467 361.907C173.307 368.947 184.253 368.933 190.907 362.88C185.427 357.467 179.533 352.467 173.6 347.547C171.707 346.173 169.76 344.227 167.293 344.227Z" fill="#F7F8EB"/>
</g>
<defs>
<clipPath id="clip0_105_422">
<rect width="254.667" height="374.667" fill="white" transform="matrix(-1 0 0 1 254.667 0)"/>
</clipPath>
</defs>
</svg>
